<svg width="256" height="256" viewBox="0 0 256 256" fill="none" xmlns="http://www.w3.org/2000/svg">
<g clip-path="url(#clip0_1_6612)">
<path d="M223.266 216.882C216.659 223.692 210.748 227.694 206.223 230.716C162.085 260.187 111.63 251.693 96.0301 248.79C70.8625 244.106 49.6173 240.801 31.3644 224.31C-10.1131 186.838 -8.09523 108.666 23.5985 60.243C27.3562 54.5012 59.0015 7.59292 109.566 0.983547C110.803 0.821719 111.726 0.729376 112.534 0.644347C120.356 -0.183995 168.828 -4.55519 208.353 28.5584C214.01 33.298 223.116 41.8484 231.558 54.888C262.43 102.567 262.528 176.412 223.267 216.882H223.266Z" fill="url(#paint0_linear_1_6612)"/>
<g opacity="0.3">
<path d="M62.667 39.3838C62.4046 39.8171 61.8405 39.9561 61.4071 39.6937C60.5642 39.1845 59.6874 38.7035 58.7996 38.2656C58.3507 38.0443 58.1633 37.504 58.3754 37.0523C58.3781 37.0469 58.3809 37.0414 58.3827 37.0359C58.6067 36.5815 59.1571 36.395 59.6115 36.6199C60.5459 37.0816 61.4693 37.5872 62.3562 38.1239C62.7621 38.3689 62.9093 38.8791 62.7118 39.2987C62.6981 39.328 62.6835 39.3563 62.6661 39.3838H62.667ZM54.3333 36.4288C53.3953 36.1161 52.4343 35.84 51.4771 35.6087C50.9852 35.4898 50.6817 34.9943 50.8005 34.5015C50.9212 34.0078 51.4158 33.7061 51.9077 33.8249C52.9143 34.0681 53.9265 34.3579 54.9139 34.688C55.3948 34.848 55.6545 35.3682 55.4935 35.8491C55.4817 35.8839 55.4679 35.9177 55.4533 35.9506C55.2586 36.3657 54.7786 36.5787 54.3333 36.4297V36.4288ZM46.7182 34.805C45.7363 34.709 44.7388 34.6542 43.7514 34.6432C43.2449 34.6377 42.8389 34.2217 42.8444 33.7152C42.8508 33.2087 43.2659 32.8027 43.7724 32.8082C44.8119 32.8201 45.8634 32.8777 46.8965 32.9783C47.4012 33.0277 47.7697 33.4766 47.7203 33.9813C47.7093 34.0891 47.681 34.1897 47.638 34.283C47.4771 34.624 47.115 34.8443 46.7182 34.8059V34.805ZM38.9312 34.9257C37.9511 35.0519 36.9655 35.2219 36.0019 35.4313C35.5063 35.5383 35.0181 35.2238 34.9102 34.7291C34.8032 34.2336 35.1178 33.7454 35.6124 33.6375C36.6282 33.4171 37.6659 33.2379 38.6963 33.1054C39.1991 33.0405 39.659 33.3961 39.7239 33.8981C39.7468 34.0782 39.7166 34.2519 39.6444 34.4055C39.5155 34.6798 39.254 34.8846 38.9312 34.9257ZM31.3646 36.7781C30.4394 37.1182 29.5159 37.5022 28.6199 37.92C28.16 38.1339 27.6142 37.9355 27.4003 37.4766C27.1854 37.0167 27.3847 36.4709 27.8446 36.2569C28.7872 35.8171 29.7591 35.413 30.7328 35.0555C31.2083 34.8809 31.7358 35.125 31.9104 35.6005C31.9982 35.84 31.9799 36.0933 31.8794 36.3072C31.7806 36.5184 31.6014 36.6912 31.3655 36.7781H31.3646ZM24.3968 40.2578C23.5685 40.7945 22.753 41.3733 21.9731 41.9785C21.5726 42.2894 20.9957 42.2162 20.6858 41.8158C20.3749 41.4153 20.448 40.8393 20.8485 40.5285C21.6695 39.8912 22.528 39.2823 23.3994 38.7173C23.8245 38.4421 24.3932 38.5637 24.6684 38.9888C24.8476 39.2649 24.8586 39.6014 24.7278 39.8793C24.6574 40.0293 24.5459 40.1618 24.3968 40.2578ZM7.59683 69.9035C7.09031 69.8971 6.68437 69.4811 6.69169 68.9737C6.7054 67.936 6.76483 66.8836 6.86814 65.8487C6.91843 65.344 7.36826 64.9764 7.87203 65.0267C8.3758 65.077 8.74426 65.5268 8.69397 66.0306C8.59614 67.0144 8.53946 68.0128 8.52666 68.9984C8.52483 69.1337 8.49374 69.2617 8.4398 69.3769C8.29169 69.6923 7.96803 69.909 7.59683 69.9044V69.9035ZM18.3772 45.1931C17.6896 45.8999 17.024 46.645 16.3996 47.4094C16.0787 47.8016 15.4999 47.8592 15.1077 47.5383C14.7155 47.2174 14.6597 46.6404 14.9788 46.2473C15.6361 45.4436 16.3374 44.6583 17.0615 43.914C17.4153 43.5511 17.9959 43.5428 18.3589 43.8967C18.6469 44.1774 18.7118 44.6007 18.55 44.9454C18.5079 45.035 18.4503 45.1191 18.3772 45.195V45.1931ZM8.39774 61.9465C7.90586 61.8267 7.60323 61.3303 7.723 60.8375C7.96894 59.829 8.26152 58.8178 8.59249 57.8313C8.75157 57.3495 9.27363 57.0926 9.75455 57.2535C10.2345 57.4144 10.4933 57.9346 10.3324 58.4155C10.0179 59.3527 9.73992 60.3136 9.50677 61.2717C9.49215 61.333 9.47112 61.3906 9.44552 61.4455C9.26357 61.8322 8.82929 62.0507 8.39866 61.9456L8.39774 61.9465ZM13.6119 51.349C13.0999 52.192 12.6172 53.067 12.1783 53.952C11.9534 54.4064 11.403 54.5911 10.9486 54.3662C10.5006 54.144 10.3141 53.6046 10.5262 53.1538C10.5289 53.1483 10.5317 53.1419 10.5344 53.1364C10.9961 52.2048 11.5045 51.2823 12.043 50.3954C12.3063 49.962 12.8704 49.8249 13.3038 50.0882C13.7079 50.3342 13.8551 50.8425 13.6576 51.2622C13.6439 51.2914 13.6284 51.3207 13.611 51.349H13.6119Z" fill="#8CB3FF"/>
<path d="M8.93809 75.8007C9.01489 75.6371 9.04507 75.4496 9.01215 75.2576C8.93261 74.7913 8.86221 74.315 8.80187 73.8432C8.73787 73.3404 8.27798 72.9847 7.77512 73.0496C7.27227 73.1136 6.91661 73.5735 6.98152 74.0764C7.04461 74.5728 7.11958 75.0739 7.20278 75.5639C7.28781 76.0631 7.76141 76.3996 8.26061 76.3155C8.56872 76.2633 8.81467 76.0631 8.93809 75.8007Z" fill="#8CB3FF"/>
</g>
<g opacity="0.3">
<path d="M24.0156 99.3655C24.2039 98.965 24.0796 98.475 23.702 98.2181C23.3116 97.952 22.9193 97.6722 22.5372 97.3879C22.1303 97.0853 21.5552 97.1694 21.2535 97.5762C20.95 97.9849 21.035 98.5582 21.4418 98.8599C21.8441 99.1589 22.2565 99.4532 22.6679 99.7339C23.0866 100.019 23.6572 99.9113 23.9433 99.4926C23.9717 99.4514 23.9954 99.4085 24.0156 99.3655Z" fill="#8CB3FF"/>
<path d="M75.6892 86.7145C75.4515 87.1616 74.8956 87.3317 74.4476 87.094C74.0005 86.8562 73.8314 86.3013 74.0682 85.8533C74.5208 85.0012 74.945 84.117 75.3326 83.2146C75.5301 82.7502 76.0723 82.5344 76.5386 82.7337C77.0049 82.933 77.2197 83.4734 77.0195 83.9397C76.8513 84.331 76.6776 84.7168 76.4974 85.099C76.2414 85.6439 75.969 86.1879 75.6892 86.7145ZM77.5489 79.861C77.0606 79.7257 76.7745 79.2201 76.9098 78.7319C77.1694 77.7938 77.3925 76.8357 77.5726 75.8821C77.665 75.3847 78.1459 75.0565 78.6442 75.1506C79.1416 75.2448 79.4698 75.7248 79.3756 76.2222C79.1864 77.2261 78.9514 78.2354 78.678 79.2219C78.6634 79.2731 78.6451 79.3225 78.6241 79.3682C78.4376 79.765 77.9859 79.9817 77.5489 79.861ZM73.0451 90.9586C72.4472 91.7861 71.8053 92.5998 71.1379 93.376C70.8078 93.76 70.2282 93.8039 69.8433 93.4729C69.4593 93.1429 69.4163 92.5632 69.7463 92.1792C70.3809 91.4423 70.9898 90.6697 71.5575 89.8843C71.8547 89.4738 72.428 89.3815 72.8394 89.6777C73.2024 89.9401 73.3166 90.4192 73.1329 90.8114C73.1091 90.8626 73.0798 90.912 73.046 90.9596L73.0451 90.9586ZM79.0026 72.1262C78.4961 72.1015 78.1057 71.6709 78.1313 71.1653C78.1788 70.1952 78.1852 69.2114 78.1505 68.2414C78.1322 67.7349 78.5281 67.3097 79.0346 67.2914C79.5411 67.2731 79.9662 67.669 79.9845 68.1755C80.0211 69.1968 80.0138 70.2336 79.9644 71.2549C79.958 71.3783 79.9288 71.4953 79.8785 71.6005C79.7249 71.9269 79.3857 72.1454 79.0026 72.1262ZM67.627 96.9308C66.8618 97.6064 66.0581 98.2583 65.2353 98.8681C64.8284 99.1708 64.2542 99.0857 63.9516 98.6789C63.649 98.272 63.734 97.6969 64.1409 97.3952C64.9217 96.8146 65.686 96.1957 66.4119 95.5548C66.7923 95.2192 67.3719 95.2558 67.7075 95.6352C67.9571 95.9186 68.001 96.3127 67.8501 96.6336C67.798 96.7433 67.7239 96.8448 67.627 96.9308ZM61.0305 101.57C60.1345 102.063 59.2074 102.523 58.2739 102.939C57.8113 103.146 57.2682 102.938 57.0615 102.475C56.8549 102.011 57.0625 101.469 57.526 101.264C58.4119 100.869 59.2933 100.431 60.1454 99.9616C60.5898 99.7175 61.1475 99.8793 61.3916 100.324C61.5388 100.592 61.5379 100.901 61.4172 101.157C61.3377 101.326 61.206 101.472 61.0295 101.569L61.0305 101.57ZM53.579 104.661C52.5962 104.947 51.5905 105.195 50.5902 105.398C50.0938 105.499 49.6092 105.178 49.5086 104.681C49.4081 104.184 49.729 103.7 50.2254 103.6C51.1763 103.407 52.1317 103.172 53.0661 102.899C53.5525 102.757 54.0618 103.037 54.2035 103.524C54.2684 103.748 54.2446 103.975 54.1532 104.171C54.0453 104.401 53.8423 104.585 53.579 104.662V104.661ZM45.6311 106.053C44.6099 106.117 43.574 106.139 42.5518 106.118C42.0453 106.107 41.643 105.687 41.654 105.18C41.665 104.675 42.0846 104.272 42.5911 104.283C43.5612 104.304 44.545 104.283 45.515 104.223C46.0206 104.191 46.4567 104.575 46.4887 105.081C46.4988 105.241 46.4677 105.393 46.4037 105.529C46.2657 105.822 45.9767 106.032 45.6302 106.054L45.6311 106.053ZM37.5671 105.665C36.5587 105.503 35.5447 105.296 34.5518 105.049C34.0599 104.926 33.76 104.429 33.8826 103.937C34.0042 103.447 34.5024 103.145 34.9943 103.268C35.9379 103.503 36.9015 103.699 37.8588 103.853C38.3589 103.933 38.6999 104.404 38.6195 104.904C38.6058 104.991 38.5802 105.073 38.5436 105.15C38.3735 105.51 37.9804 105.732 37.5671 105.665ZM29.793 103.517C29.0935 103.239 28.395 102.936 27.7148 102.617C27.4688 102.501 27.2247 102.383 26.9824 102.262C26.529 102.036 26.3324 101.487 26.5692 101.032C26.7941 100.579 27.3454 100.393 27.7998 100.619C28.0302 100.733 28.2624 100.846 28.4965 100.956C29.1429 101.26 29.8067 101.548 30.4714 101.813C30.9422 102 31.1717 102.534 30.9843 103.004C30.977 103.022 30.9696 103.039 30.9614 103.056C30.7566 103.492 30.2455 103.698 29.792 103.517H29.793Z" fill="#8CB3FF"/>
<path d="M79.3866 63.7248C79.4643 63.5593 79.4935 63.3701 79.4597 63.1771C79.3738 62.688 79.2768 62.1906 79.1699 61.7006C79.062 61.205 78.5738 60.8914 78.0782 60.9993C77.5827 61.1072 77.2691 61.5954 77.377 62.091C77.4784 62.5573 77.5708 63.029 77.6522 63.4935C77.739 63.9927 78.2144 64.3264 78.7136 64.2395C79.0199 64.1856 79.2631 63.9863 79.3866 63.7257V63.7248Z" fill="#8CB3FF"/>
</g>
<path d="M66.5234 54.6688C66.4439 54.5033 66.2693 54.4073 66.0873 54.4283L60.9015 55.0254C59.3746 53.1246 57.5342 51.4542 55.4203 50.1029L55.4551 44.8869C55.456 44.704 55.3408 44.5403 55.1689 44.4791L49.2636 42.3991C49.0908 42.3378 48.8988 42.3936 48.7854 42.5371L45.5433 46.6231C43.0492 46.3515 40.5678 46.4997 38.187 47.0235L34.5207 43.3079C34.3918 43.1781 34.1952 43.1433 34.0297 43.2219L28.3831 45.9264C28.2185 46.005 28.1216 46.1806 28.1426 46.3625L28.7397 51.5483C26.8389 53.0752 25.1685 54.9157 23.8171 57.0295L18.6011 56.9947C18.4183 56.9938 18.2546 57.1081 18.1934 57.2809L16.1134 63.1863C16.053 63.3591 16.1079 63.5511 16.2514 63.6645L20.3383 66.9065C20.0667 69.4007 20.2149 71.8821 20.7387 74.2629L17.0231 77.9292C16.8933 78.0581 16.8585 78.2546 16.9371 78.4201L19.6416 84.0668C19.7202 84.2313 19.8958 84.3282 20.0777 84.3072L25.2635 83.7102C26.7904 85.611 28.6309 87.2814 30.7447 88.6327L30.71 93.8487C30.709 94.0316 30.8233 94.1952 30.9961 94.2565L36.9015 96.3365C37.0743 96.3968 37.2663 96.342 37.3797 96.1984L40.6217 92.1125C43.1159 92.384 45.5973 92.2359 47.9781 91.712L51.6444 95.4277C51.7724 95.5575 51.9698 95.5922 52.1353 95.5136L57.782 92.8092C57.9465 92.7305 58.0434 92.555 58.0224 92.373L57.4254 87.1872C59.3262 85.6604 60.9966 83.8199 62.3479 81.7061L67.5639 81.7408C67.7467 81.7417 67.9104 81.6274 67.9717 81.4546L70.0517 75.5493C70.112 75.3765 70.0571 75.1845 69.9136 75.0711L65.8277 71.829C66.0992 69.3349 65.9511 66.8535 65.4272 64.4727L69.1429 60.8064C69.2727 60.6775 69.3074 60.4809 69.2288 60.3163L66.5243 54.6697L66.5234 54.6688Z" fill="#8CB3FF"/>
<path d="M48.3255 72.8485C46.4064 75.7394 42.4933 76.5312 39.6014 74.6112C38.2007 73.6814 37.2462 72.2624 36.9134 70.6139C36.5806 68.9664 36.9088 67.2878 37.8386 65.8871C39.7577 62.9961 43.6709 62.2043 46.5627 64.1243C49.1931 65.8706 50.0855 69.2672 48.7799 72.043C48.6501 72.3182 48.4992 72.5879 48.3264 72.8485H48.3255ZM38.3525 70.3241C38.6075 71.5877 39.3399 72.6757 40.4142 73.3888C42.6304 74.8599 45.632 74.2537 47.1031 72.0366C48.576 69.8194 47.968 66.8187 45.7509 65.3477C43.5346 63.8766 40.533 64.4827 39.0619 66.6999C38.9285 66.901 38.8114 67.1095 38.7109 67.3234C38.2729 68.2542 38.1449 69.2974 38.3525 70.3241Z" fill="#B2CCFF"/>
<path d="M56.95 76.0284C57.174 75.552 57.376 75.0611 57.5534 74.5573C57.6092 74.3991 57.6622 74.2391 57.7134 74.0791C57.9639 73.2882 58.1504 72.48 58.2711 71.6645C58.2729 71.6535 58.2748 71.6425 58.2757 71.6316C58.2802 71.6005 58.2848 71.5685 58.2894 71.5365C58.2985 71.4752 58.3058 71.413 58.3141 71.3518C58.3351 71.19 58.2464 71.0391 58.1065 70.9733C58.0727 70.9568 58.0352 70.9458 57.9959 70.9413C57.7948 70.9157 57.6119 71.0583 57.5854 71.2595C57.4537 72.2944 57.2096 73.3221 56.8604 74.3132C55.126 79.2403 51.0226 82.6688 46.2766 83.7733C43.637 84.3886 40.7991 84.2844 38.059 83.3189C37.5781 83.1497 37.1099 82.9577 36.6555 82.7438C33.5954 81.3038 31.1433 78.8755 29.6631 75.7843C27.9616 72.2332 27.7458 68.2322 29.0542 64.5184C31.7568 56.8494 40.1893 52.8119 47.8555 55.5127C48.3282 55.6791 48.7909 55.8693 49.2416 56.0814C51.1936 57.0002 52.9234 58.3351 54.3013 59.9982C54.3369 60.0412 54.3799 60.0741 54.4274 60.096C54.5518 60.1545 54.7045 60.1399 54.8178 60.0466C54.9733 59.9168 54.9961 59.6864 54.8663 59.5301C53.4199 57.7847 51.6041 56.3822 49.5543 55.4176C49.0816 55.1954 48.5961 54.9961 48.0997 54.8206C40.0512 51.9854 31.1963 56.2286 28.362 64.2743C26.9888 68.1728 27.2155 72.373 29.002 76.1015C30.5563 79.3472 33.1301 81.8963 36.3429 83.4085C36.8201 83.6334 37.312 83.8345 37.8167 84.0128C41.7161 85.3861 45.9154 85.1593 49.6439 83.3737C52.8905 81.8185 55.4396 79.2439 56.9509 76.0302L56.95 76.0284Z" fill="#B2CCFF"/>
<g opacity="0.3">
<path d="M97.9228 21.2553C98.027 21.0331 97.9785 20.7607 97.7856 20.5897C97.4254 20.2706 97.0505 19.9579 96.672 19.6608C96.4261 19.4679 96.0695 19.5109 95.8766 19.7568C95.6818 20.0027 95.7266 20.3593 95.9726 20.5522C96.3337 20.8357 96.6903 21.1337 97.0341 21.4382C97.2681 21.6457 97.6265 21.6238 97.8341 21.3897C97.8706 21.3477 97.8999 21.3029 97.9228 21.2544V21.2553Z" fill="#8CB3FF"/>
<path d="M94.3817 18.7264C94.2199 18.9943 93.8724 19.0811 93.6036 18.9202C92.9261 18.5134 92.2203 18.1367 91.5063 17.8002C91.3554 17.7289 91.2036 17.6603 91.05 17.5918C90.7648 17.4647 90.6359 17.1291 90.7629 16.8439C90.8937 16.5778 91.2256 16.4297 91.5117 16.5568C91.6717 16.6281 91.8308 16.7013 91.989 16.7753C92.7378 17.1273 93.4784 17.5232 94.1888 17.9502C94.4402 18.101 94.5325 18.4165 94.41 18.6761C94.4018 18.6935 94.3927 18.7109 94.3826 18.7273L94.3817 18.7264ZM88.3538 16.5833C87.4377 16.3035 86.496 16.0777 85.5552 15.9122C85.2471 15.8583 85.0414 15.5648 85.0953 15.2558C85.1492 14.9495 85.4427 14.741 85.7518 14.7959C86.7374 14.9687 87.7248 15.2055 88.6848 15.4999C88.9837 15.5913 89.1529 15.9086 89.0615 16.2075C89.0532 16.2341 89.0432 16.2597 89.0322 16.2834C88.9143 16.5339 88.6272 16.6665 88.3538 16.5833ZM82.6953 15.5922C81.7399 15.5447 80.7716 15.5575 79.8171 15.6297C79.5054 15.6535 79.2329 15.4185 79.21 15.1067C79.1863 14.7941 79.4203 14.5225 79.733 14.4987C80.7342 14.4238 81.7499 14.411 82.7511 14.4594C83.0638 14.475 83.3051 14.741 83.2896 15.0537C83.2859 15.1296 83.2667 15.2018 83.2366 15.2667C83.1415 15.4688 82.9321 15.6032 82.6962 15.5922H82.6953ZM76.9655 16.0219C76.0265 16.2112 75.0903 16.4599 74.1851 16.7625C73.888 16.8613 73.5671 16.7013 73.4683 16.4041C73.3696 16.1079 73.5296 15.7861 73.8267 15.6873C74.7767 15.3701 75.7577 15.1095 76.7433 14.9111C77.0505 14.8489 77.3495 15.0482 77.4107 15.3554C77.4354 15.4789 77.418 15.6014 77.3678 15.7074C77.2937 15.8647 77.1492 15.9854 76.9664 16.0219H76.9655ZM71.5145 17.8377C70.6496 18.2491 69.803 18.7182 68.9966 19.2311C68.7333 19.3993 68.3822 19.3207 68.2139 19.0574C68.0457 18.7931 68.1234 18.443 68.3877 18.2747C69.2325 17.7371 70.1202 17.2462 71.0263 16.8146C71.3088 16.6802 71.6471 16.8 71.7815 17.0825C71.8574 17.2425 71.8519 17.4199 71.7824 17.568C71.7284 17.6823 71.6361 17.7801 71.5136 17.8386L71.5145 17.8377ZM66.6697 20.9216C65.9319 21.5305 65.2261 22.1906 64.5696 22.8855C64.3547 23.1131 63.9963 23.1232 63.7687 22.9083C63.541 22.6935 63.531 22.336 63.7458 22.1065C64.4334 21.3787 65.1749 20.6857 65.9483 20.0466C66.1897 19.8473 66.5472 19.8821 66.7456 20.1234C66.8901 20.2981 66.912 20.5339 66.8215 20.7259C66.7867 20.7991 66.7365 20.8667 66.6697 20.9216ZM62.7273 25.0944C62.1632 25.8633 61.6402 26.6779 61.173 27.5154C61.0203 27.7888 60.6747 27.8866 60.4014 27.7339C60.128 27.5813 60.0338 27.2393 60.1829 26.9623C60.6738 26.0846 61.2224 25.2306 61.8139 24.4242C61.9995 24.1719 62.3543 24.117 62.6066 24.3026C62.8288 24.4654 62.8974 24.7598 62.784 25.0002C62.7685 25.0331 62.7502 25.0642 62.7282 25.0944H62.7273ZM58.3122 33.237C58.0096 33.1557 57.8313 32.8448 57.9127 32.5422C58.1385 31.7056 58.4146 30.8672 58.731 30.0517C58.7785 29.9273 58.8279 29.8048 58.8773 29.6823C58.9861 29.3906 59.3262 29.2535 59.616 29.3724C59.9058 29.4903 60.0448 29.8213 59.9269 30.1111C59.8793 30.2263 59.8336 30.3415 59.7888 30.4604C59.4853 31.2402 59.2229 32.0402 59.0071 32.8375C58.9979 32.8704 58.987 32.9015 58.9723 32.9317C58.8571 33.1758 58.581 33.3102 58.3122 33.237Z" fill="#8CB3FF"/>
</g>
<g opacity="0.3">
<path d="M103.552 49.6411C103.12 50.5298 102.63 51.3993 102.096 52.2258C101.926 52.4882 101.575 52.5641 101.312 52.3941C101.049 52.224 100.977 51.8729 101.144 51.6105C101.653 50.8224 102.12 49.9922 102.533 49.1447C102.67 48.8631 103.009 48.7461 103.29 48.8832C103.568 49.0194 103.686 49.3541 103.555 49.6338C103.554 49.6357 103.553 49.6384 103.551 49.6411H103.552ZM103.966 47.2485C103.671 47.1461 103.514 46.8233 103.616 46.528C103.923 45.6384 104.18 44.7205 104.379 43.8007C104.445 43.4971 104.746 43.3006 105.052 43.3664C105.359 43.4322 105.552 43.7339 105.487 44.0402C105.278 45.0039 105.009 45.9657 104.688 46.8983C104.681 46.9184 104.673 46.9367 104.665 46.955C104.543 47.2137 104.244 47.3445 103.967 47.2485H103.966ZM100.335 54.6167C99.7001 55.3746 99.0144 56.1006 98.2967 56.7735C98.0681 56.9874 97.7088 56.9755 97.4958 56.747C97.2819 56.5184 97.2937 56.1609 97.5214 55.946C98.2071 55.3042 98.8608 54.6121 99.4661 53.8889C99.6672 53.6484 100.025 53.6174 100.264 53.8176C100.466 53.9867 100.52 54.2656 100.413 54.4933C100.393 54.5362 100.367 54.5774 100.335 54.6158V54.6167ZM105.318 41.6183C105.007 41.5899 104.777 41.3147 104.805 41.003C104.889 40.0649 104.916 39.1131 104.886 38.1733C104.876 37.8606 105.122 37.5991 105.434 37.5881C105.746 37.5781 106.009 37.8231 106.019 38.1367C106.051 39.1232 106.022 40.1216 105.934 41.1045C105.927 41.1721 105.91 41.2361 105.883 41.2946C105.784 41.504 105.563 41.6402 105.318 41.6183ZM96.0119 58.666C95.2156 59.2475 94.3753 59.787 93.515 60.2688C93.2416 60.4215 92.896 60.3237 92.7433 60.0512C92.5907 59.7778 92.6876 59.4322 92.9609 59.2795C93.7829 58.8206 94.5838 58.3058 95.3427 57.7509C95.595 57.5662 95.9497 57.621 96.1344 57.8743C96.2615 58.0471 96.2752 58.2683 96.1893 58.4503C96.15 58.5335 96.0905 58.6084 96.011 58.666H96.0119ZM90.8435 61.5598C89.9292 61.9346 88.9847 62.2574 88.0348 62.5188C87.7331 62.602 87.4213 62.4247 87.3381 62.123C87.2549 61.8212 87.4314 61.5095 87.734 61.4263C88.6391 61.1767 89.5406 60.8686 90.4128 60.5102C90.7027 60.3913 91.0336 60.5303 91.1525 60.8192C91.2156 60.9719 91.2064 61.1365 91.1406 61.2754C91.0821 61.3989 90.9797 61.5022 90.8435 61.5579V61.5598ZM85.1301 63.1333C84.1518 63.2786 83.1571 63.3655 82.1724 63.3911C81.8588 63.3993 81.5991 63.1524 81.5909 62.8388C81.5827 62.5262 81.8304 62.2665 82.1422 62.2574C83.0812 62.2336 84.0302 62.1504 84.9628 62.0114C85.2727 61.9657 85.5607 62.1787 85.6064 62.4887C85.6238 62.6039 85.6046 62.7154 85.5589 62.8133C85.4812 62.9787 85.3239 63.104 85.1292 63.1333H85.1301Z" fill="#8CB3FF"/>
<path d="M105.692 35.4816C105.739 35.3829 105.757 35.2695 105.739 35.1534C105.664 34.6743 105.574 34.1952 105.473 33.7289C105.406 33.4235 105.104 33.2288 104.798 33.2955C104.493 33.3632 104.299 33.664 104.365 33.9703C104.462 34.4146 104.547 34.8718 104.619 35.3289C104.667 35.6379 104.957 35.8501 105.266 35.8007C105.459 35.7705 105.615 35.6462 105.691 35.4816H105.692Z" fill="#8CB3FF"/>
</g>
<path d="M97.0569 29.013C97.0039 28.9024 96.8868 28.8375 96.7652 28.8521L93.2955 29.2517C92.2743 27.9799 91.0418 26.8626 89.6283 25.9584L89.6512 22.4677C89.6512 22.3451 89.5753 22.2354 89.4592 22.1952L85.5077 20.8037C85.3925 20.7625 85.2635 20.8 85.1877 20.896L83.0181 23.6306C81.3495 23.4487 79.6891 23.5474 78.0955 23.8985L75.6425 21.4126C75.5566 21.3257 75.4249 21.3029 75.3143 21.355L71.5356 23.1653C71.4249 23.2183 71.36 23.3353 71.3746 23.4569L71.7742 26.9266C70.5024 27.9479 69.3842 29.1803 68.48 30.5947L64.9893 30.5719C64.8668 30.5719 64.757 30.6478 64.7168 30.7639L63.3244 34.7154C63.2841 34.8306 63.3207 34.9595 63.4167 35.0354L66.1513 37.205C65.9694 38.8736 66.0681 40.5339 66.4192 42.1275L63.9333 44.5806C63.8464 44.6665 63.8236 44.7982 63.8757 44.9088L65.686 48.6875C65.739 48.7982 65.856 48.8622 65.9776 48.8484L69.4473 48.4489C70.4686 49.7207 71.7001 50.8388 73.1145 51.7421L73.0917 55.2329C73.0917 55.3554 73.1675 55.4651 73.2837 55.5053L77.2352 56.8978C77.3504 56.938 77.4793 56.9015 77.5552 56.8055L79.7248 54.0708C81.3934 54.2528 83.0537 54.154 84.6473 53.8029L87.1003 56.2889C87.1863 56.3757 87.3179 56.3986 87.4286 56.3465L91.2073 54.5362C91.3179 54.4832 91.3829 54.3661 91.3682 54.2445L90.9687 50.7748C92.2404 49.7536 93.3586 48.5211 94.2628 47.1076L97.7536 47.1305C97.8761 47.1305 97.9858 47.0546 98.026 46.9385L99.4176 42.987C99.4578 42.8718 99.4212 42.7428 99.3252 42.667L96.5906 40.4974C96.7726 38.8288 96.6738 37.1684 96.3227 35.5748L98.8087 33.1218C98.8955 33.0359 98.9184 32.9042 98.8663 32.7936L97.056 29.0149L97.0569 29.013Z" fill="#8CB3FF"/>
<path d="M84.9426 41.2197C84.3099 42.1742 83.3426 42.8242 82.2199 43.051C81.098 43.2777 79.9543 43.0537 78.9998 42.421C77.0304 41.1136 76.4928 38.453 77.7984 36.4782C79.1058 34.5088 81.7719 33.9703 83.7403 35.2777C84.6948 35.9113 85.3449 36.8777 85.5716 38.0005C85.7563 38.9129 85.643 39.8391 85.2535 40.6665C85.1639 40.8567 85.0596 41.0423 84.9417 41.2206L84.9426 41.2197ZM79.627 41.4766C80.3291 41.9429 81.1703 42.1074 81.9959 41.9401C82.8215 41.7728 83.5328 41.2946 83.9982 40.5934C84.4635 39.8912 84.6281 39.0501 84.4617 38.2245C84.2953 37.3989 83.8162 36.6875 83.115 36.2222C81.6658 35.2603 79.7056 35.6571 78.7438 37.1054C78.6569 37.2361 78.5819 37.3705 78.517 37.5086C77.8624 38.8992 78.3095 40.6016 79.6279 41.4766H79.627Z" fill="#B2CCFF"/>
<path d="M90.9458 43.4322C91.0985 43.1077 91.2357 42.773 91.3582 42.4274C91.5995 41.7417 91.7723 41.0313 91.8702 40.3127C91.8747 40.2807 91.8784 40.2478 91.883 40.2158C91.915 39.9662 91.7787 39.7339 91.563 39.6315C91.5099 39.6069 91.4533 39.5895 91.392 39.5822C91.0811 39.5429 90.7995 39.7632 90.7584 40.0731C90.6734 40.7442 90.5152 41.4098 90.2894 42.0498C90.2775 42.0855 90.2638 42.1202 90.2519 42.155C89.7033 43.6663 88.7991 44.9829 87.6261 46.0206C86.9897 46.5838 86.2729 47.0647 85.4894 47.4478C85.483 47.4505 85.4766 47.4542 85.4702 47.4569C85.4501 47.4661 85.4309 47.4761 85.4117 47.4853C83.1131 48.5861 80.523 48.7269 78.1184 47.8793C77.8075 47.7696 77.504 47.6453 77.2096 47.5072C75.2283 46.5746 73.6411 45.003 72.6821 43.0016C71.5813 40.7031 71.4414 38.1129 72.288 35.7093C73.1355 33.3074 74.8672 31.3746 77.1657 30.2729C79.4642 29.1721 82.0544 29.0313 84.459 29.8789C84.7653 29.9867 85.0642 30.1093 85.3559 30.2464C86.6203 30.8416 87.7394 31.7056 88.6309 32.7817C88.6857 32.8485 88.7525 32.8987 88.8256 32.9326C89.0176 33.0231 89.2544 33.0011 89.4281 32.8558C89.6686 32.6555 89.7024 32.299 89.5031 32.0576C88.5047 30.8535 87.2521 29.8862 85.8386 29.2206C85.5122 29.067 85.1776 28.9298 84.8357 28.8091C82.1458 27.8619 79.2475 28.0183 76.6757 29.2507C74.1038 30.4832 72.1646 32.64 71.2183 35.3317C70.2702 38.0215 70.4274 40.9189 71.6599 43.4907C72.7323 45.7298 74.5079 47.4889 76.7241 48.5312C77.0533 48.6857 77.3925 48.8256 77.7399 48.9481C82.9477 50.7822 88.6437 48.3227 90.9449 43.4304L90.9458 43.4322Z" fill="#B2CCFF"/>
<path d="M212.163 73.3266C211.748 73.3266 211.404 72.9984 211.387 72.5796C211.374 72.2313 209.858 37.578 194.746 25.1273C190.295 21.4592 185.032 20.064 179.111 20.981C166.608 22.9157 157.957 32.1262 153.397 48.3556C149.961 60.586 150.28 72.4087 150.284 72.5266C150.297 72.9554 149.96 73.3138 149.531 73.3266C149.101 73.3266 148.744 73.0039 148.731 72.5742C148.728 72.4544 148.399 60.4251 151.893 47.9689C153.956 40.6153 156.927 34.5426 160.725 29.9191C165.512 24.0923 171.619 20.5687 178.874 19.4459C185.254 18.4585 190.928 19.9671 195.738 23.9305C202.328 29.3614 207.226 39.2027 210.298 53.1822C212.571 63.5328 212.938 72.4324 212.941 72.5211C212.957 72.9499 212.623 73.3102 212.195 73.3275C212.185 73.3275 212.175 73.3275 212.164 73.3275L212.163 73.3266Z" fill="url(#paint1_linear_1_6612)"/>
<path d="M114.842 63.0565C114.959 62.261 115.635 61.6667 116.44 61.6539L204.24 60.203L232.988 231.589H94.2601C89.4948 231.589 114.842 63.0574 114.842 63.0574V63.0565Z" fill="#3F80FF"/>
<path d="M219.593 61.5095L204.239 60.203L232.987 231.589H250.185C253.672 231.589 256.278 228.384 255.566 224.971L221.965 63.6123C221.726 62.4649 220.761 61.6101 219.593 61.5104V61.5095Z" fill="#0041BF"/>
<path d="M192.997 72.9582C192.581 72.9582 192.238 72.63 192.221 72.2112C192.208 71.8629 190.692 37.2096 175.58 24.7589C171.129 21.0907 165.867 19.6965 159.945 20.6126C147.442 22.5472 138.79 31.7577 134.231 47.9872C130.795 60.2176 131.114 72.0402 131.118 72.1582C131.131 72.587 130.794 72.9454 130.365 72.9582C129.947 72.9646 129.578 72.6345 129.565 72.2057C129.562 72.086 129.233 60.0567 132.727 47.6005C134.789 40.2469 137.761 34.1742 141.559 29.5506C146.346 23.7239 152.453 20.2002 159.708 19.0775C166.088 18.0891 171.762 19.5986 176.571 23.5621C183.162 28.9929 188.06 38.8343 191.131 52.8137C193.405 63.1644 193.772 72.064 193.775 72.1527C193.791 72.5815 193.457 72.9417 193.029 72.9591C193.019 72.9591 193.008 72.9591 192.997 72.9591L192.997 72.9582Z" fill="url(#paint2_linear_1_6612)"/>
<path d="M138.077 135.982C138.065 135.66 136.665 103.653 122.68 92.128C118.536 88.7131 113.64 87.4149 108.13 88.2679C96.5313 90.0626 88.5102 98.5948 84.2881 113.627C81.1164 124.922 81.4117 135.835 81.4145 135.944L80.3475 135.977C80.3438 135.867 80.0421 124.811 83.2531 113.361C85.1466 106.611 87.8721 101.038 91.3555 96.7982C95.7367 91.4651 101.325 88.2405 107.965 87.2128C113.789 86.3113 118.97 87.6882 123.358 91.3051C129.398 96.2825 133.89 105.316 136.711 118.155C138.803 127.675 139.14 135.859 139.143 135.941L138.077 135.982Z" fill="url(#paint3_linear_1_6612)"/>
<path d="M36.5532 224.904L50.7292 131.46C50.8645 130.567 51.6242 129.903 52.5266 129.888L134.439 128.534L152.158 234.026H43.5264C38.9184 234.026 35.8812 229.463 36.5532 224.904Z" fill="#B2CCFF"/>
<path d="M150.233 129.878L134.44 128.534L152.159 234.026L169.65 233.574C171.377 233.53 172.641 231.931 172.287 230.241L151.457 130.883C151.297 130.327 150.811 129.926 150.234 129.878H150.233Z" fill="#8CB3FF"/>
<path d="M120.42 135.643C120.407 135.321 119.008 103.313 105.022 91.7888C100.879 88.3739 95.9835 87.0757 90.4722 87.9287C78.8736 89.7234 70.8526 98.2555 66.6304 113.288C63.4587 124.582 63.7541 135.496 63.7568 135.605L62.6898 135.638C62.6862 135.527 62.3845 124.472 65.5954 113.022C67.4889 106.272 70.2144 100.699 73.6978 96.459C78.0791 91.1259 83.6672 87.9013 90.3077 86.8736C96.1326 85.9721 101.312 87.349 105.701 90.9659C111.74 95.9433 116.232 104.976 119.054 117.816C121.146 127.336 121.482 135.52 121.486 135.601L120.42 135.643Z" fill="url(#paint4_linear_1_6612)"/>
<path d="M61.0395 166.708C61.0331 166.536 60.2816 149.366 52.8018 143.204C50.6048 141.394 48.0073 140.705 45.0843 141.158C30.2766 143.449 30.8178 166.446 30.8252 166.678L29.9557 166.705C29.9538 166.645 29.7911 160.67 31.5255 154.483C33.8478 146.203 38.4905 141.298 44.9509 140.297C48.1307 139.805 50.9586 140.557 53.3559 142.533C61.1355 148.944 61.8807 165.953 61.9081 166.675L61.0386 166.708H61.0395Z" fill="url(#paint5_linear_1_6612)"/>
<path d="M15.5922 159.571L61.4601 158.813L74.9257 235.176H6.37987C4.03838 235.176 13.4829 168.563 14.6496 160.402C14.7172 159.931 15.1168 159.58 15.5922 159.571Z" fill="#8CB3FF"/>
<path d="M69.5323 159.501L61.4601 158.814L74.9257 235.176H83.9424C84.9947 235.176 85.7819 234.212 85.5716 233.181L70.7291 160.566C70.6103 159.986 70.1229 159.552 69.5323 159.502V159.501Z" fill="#7D97F4"/>
<path d="M51.5319 166.525C51.5255 166.353 50.7739 149.183 43.2941 143.021C41.0971 141.211 38.4996 140.522 35.5767 140.975C20.7689 143.266 21.3102 166.263 21.3175 166.495L20.448 166.522C20.4462 166.462 20.2834 160.487 22.0178 154.301C24.3401 146.02 28.9828 141.115 35.4432 140.115C38.6231 139.623 41.4509 140.374 43.8482 142.35C51.6279 148.761 52.373 165.77 52.4004 166.492L51.5309 166.525H51.5319Z" fill="url(#paint6_linear_1_6612)"/>
<path d="M193.234 243.13C193.234 243.13 193.957 247.221 194.311 251.271C194.45 252.854 193.23 254.228 191.642 254.295C186.248 254.52 174.711 254.957 170.571 254.771C169.948 254.744 169.541 254.107 169.772 253.528C169.965 253.043 170.337 252.651 170.811 252.432L189.869 243.674L193.234 243.13Z" fill="url(#paint7_linear_1_6612)"/>
<path d="M193.827 240.726L193.246 245.62C193.246 245.62 189.908 247.174 187.628 245.424L189.01 239.971L193.827 240.727V240.726Z" fill="url(#paint8_linear_1_6612)"/>
<path d="M193.39 148.717C193.64 149.995 194.736 212.494 188.056 240.502C187.947 240.959 188.178 241.43 188.613 241.607C189.638 242.026 191.647 242.632 194.054 242.714C194.8 242.738 195.469 242.254 195.679 241.539C197.589 235.04 206.739 202.482 207.933 171.38C209.267 136.626 207.933 170.197 207.933 170.197L207.151 148.715L193.391 148.718L193.39 148.717Z" fill="url(#paint9_linear_1_6612)"/>
<path d="M215.157 245.264C215.157 245.264 216.307 247.33 217.422 252.818C217.623 253.809 216.93 254.758 215.923 254.857C214.142 255.033 211.4 255.258 209.204 255.242C208.192 255.235 207.401 254.353 207.524 253.348C207.767 251.345 208.525 248.058 210.866 245.497L215.157 245.264Z" fill="url(#paint10_linear_1_6612)"/>
<path d="M216.167 238.97L214.81 246.371C214.81 246.371 213.469 247.368 210.815 246.645L211.462 238.682L216.167 238.969V238.97Z" fill="url(#paint11_linear_1_6612)"/>
<path d="M219.833 150.634C225.296 183.61 218.648 232.135 216.405 241.633C216.268 242.214 215.799 242.66 215.209 242.758C214.208 242.923 212.56 243.059 210.936 242.587C210.376 242.424 209.983 241.919 209.96 241.337C209.659 233.659 210.201 186.519 205.11 167.889C204.852 166.945 204.275 166.122 203.478 165.555L193.596 158.53L192.838 147.174L219.834 150.633L219.833 150.634Z" fill="url(#paint12_linear_1_6612)"/>
<path d="M187.628 89.3294C187.628 89.3294 212.729 83.0738 230.283 92.3703L219.833 150.634C219.833 150.634 203.206 151.974 192.837 148.676L187.628 89.3284V89.3294Z" fill="#8CB3FF"/>
<path d="M215.779 71.8729L217.699 88.406C217.822 88.64 217.763 88.9289 217.552 89.0889C216.266 90.0782 211.546 93.088 204.865 90.1449C204.169 89.8386 203.637 89.2471 203.427 88.5157L206.146 74.187L215.779 71.872V71.8729Z" fill="url(#paint13_linear_1_6612)"/>
<path d="M200.372 63.2539C200.372 63.2539 197.927 75.2009 199.859 79.1671C201.792 83.1332 208.506 80.8302 213.446 75.691L214.311 63.3134L200.372 63.253V63.2539Z" fill="url(#paint14_linear_1_6612)"/>
<path d="M211.57 70.2903C211.298 70.2546 211.121 69.9858 211.201 69.7216C211.442 68.9207 211.863 67.307 211.773 66.0297C211.773 66.0297 212.574 65.1072 208.829 65.3001C205.085 65.493 199.486 65.7298 197.513 63.0757C195.589 60.4882 196.248 52.3611 202.441 56.8576C202.677 57.0286 203.013 56.9353 203.117 56.6638C203.569 55.4917 204.916 52.9381 207.952 53.3513C210.792 53.7381 211.616 55.4935 211.855 56.4297C211.925 56.7049 212.231 56.8457 212.484 56.715C213.681 56.0997 216.664 54.9952 219.004 57.6987C220.933 59.9259 220.601 61.6064 220.118 62.5225C219.962 62.8197 220.172 63.1698 220.507 63.1735C221.416 63.1835 222.701 63.573 223.168 65.5579C223.814 68.3026 220.725 68.9536 219.829 69.0834C219.683 69.1045 219.555 69.195 219.491 69.3285C218.994 70.3616 216.693 74.8023 213.222 76.2779C212.922 76.4059 212.59 76.1691 212.605 75.8437L212.829 70.8645C212.839 70.6331 212.671 70.4329 212.442 70.4018L211.569 70.2875L211.57 70.2903Z" fill="url(#paint15_linear_1_6612)"/>
<path d="M211.134 71.1168C211.134 71.1168 214.252 67.285 215.203 69.4583C216.154 71.6315 212.647 73.7646 210.515 73.4784L211.134 71.1168Z" fill="url(#paint16_linear_1_6612)"/>
<path d="M234.874 124.353C234.874 124.353 233.163 146.232 218.76 147.175C218.76 147.175 212.587 146.609 209.907 148.714C207.227 150.819 208.526 154.061 208.526 154.061L220.146 152.644C220.146 152.644 236.765 155.411 246.757 127.594L234.874 124.353Z" fill="url(#paint17_linear_1_6612)"/>
<path d="M230.283 92.3703C230.283 92.3703 249.998 104.098 246.757 127.594C246.757 127.594 239.715 130.647 234.594 126.555C234.594 126.555 230.603 111.29 221.936 110.529L230.284 92.3703H230.283Z" fill="#8CB3FF"/>
<path d="M174.529 100.778C174.529 100.778 165.061 105.179 153.989 93.4309C146.421 85.4016 141.791 90.325 140.328 93.5662C138.864 96.8073 142.365 96.5367 143.586 96.5367C144.806 96.5367 144.958 93.0112 147.11 93.4912C149.263 93.9712 148.63 93.3285 148.764 95.4889C148.9 97.6494 160.47 122.048 174.784 110.165L174.529 100.779V100.778Z" fill="url(#paint18_linear_1_6612)"/>
<path d="M130.991 104.187L163.524 102.362C166.49 102.195 169.093 104.106 169.472 106.73L176.757 157.087C177.191 160.089 174.565 162.747 171.163 162.747H128.713C125.492 162.747 122.925 160.35 123.08 157.486L125.712 108.954C125.851 106.4 128.123 104.347 130.991 104.187Z" fill="#002B7F"/>
<path d="M136.485 109.303C135.985 109.303 135.57 108.909 135.549 108.404C135.522 107.758 135.013 92.5467 145.717 90.8736C148.007 90.5179 150.039 91.0546 151.757 92.4736C156.968 96.7808 157.409 107.863 157.425 108.333C157.444 108.85 157.039 109.284 156.521 109.302C156.007 109.31 155.569 108.915 155.552 108.398C155.548 108.292 155.124 97.6868 150.562 93.9182C149.259 92.8411 147.769 92.4535 146.008 92.7269C136.938 94.144 137.418 108.184 137.424 108.325C137.445 108.843 137.043 109.28 136.526 109.302C136.512 109.302 136.499 109.302 136.486 109.302L136.485 109.303Z" fill="#B2CCFF"/>
<path d="M187.628 89.3294L172.354 100.778C172.354 100.778 172.084 109.355 174.109 113.411L191.123 109.23L187.628 89.3294Z" fill="#8CB3FF"/>
<path d="M90.4741 178.953V192.515C90.4741 197.565 92.3739 202.43 95.1113 206.672L97.7024 209.987C100.702 214.63 105.837 217.286 111.364 217.286H168.112L168.541 215.827L182.45 164.87L194.121 158.577L192.383 155.399L179.344 162.469L174.872 178.953H90.4741ZM94.5234 183.003H173.877L168.28 203.652L165.327 214.587H111.364C107.079 214.587 103.057 212.08 100.735 208.483L98.3762 204.721C96.0165 201.072 94.5225 196.86 94.5225 192.515V183.002L94.5234 183.003Z" fill="#002B7F"/>
<path d="M98.3095 235.781C98.3095 236.785 99.1269 237.803 100.136 237.803H166.719C167.728 237.803 168.491 236.378 168.491 235.373V203.976C168.491 203.631 168.422 203.665 168.254 203.39L165.327 214.587H164.442V233.755H100.137C99.1278 233.755 98.3104 234.772 98.3104 235.781L98.3095 235.781Z" fill="#002B7F"/>
<path d="M135.274 180.859H132.844V215.037H135.274V180.859Z" fill="#002B7F"/>
<path d="M156.742 180.859H154.312V215.037H156.742V180.859Z" fill="#002B7F"/>
<path d="M114.312 180.859H111.882V215.037H114.312V180.859Z" fill="#002B7F"/>
<path d="M172.954 190.913H93.9017V193.086H172.954V190.913Z" fill="#002B7F"/>
<path d="M169.503 202.811H95.8821V204.984H169.503V202.811Z" fill="#002B7F"/>
<path d="M150.341 248.149C150.341 252.484 153.855 256 158.191 256C162.526 256 166.042 252.485 166.042 248.149C166.042 243.812 162.527 240.299 158.191 240.299C153.854 240.299 150.341 243.813 150.341 248.149ZM153.453 248.149C153.453 245.532 155.574 243.41 158.192 243.41C160.809 243.41 162.93 245.531 162.93 248.149C162.93 250.767 160.808 252.888 158.192 252.888C155.575 252.888 153.453 250.767 153.453 248.149Z" fill="#002B7F"/>
<path d="M101.555 248.149C101.555 252.484 105.07 256 109.405 256C113.741 256 117.256 252.485 117.256 248.149C117.256 243.812 113.742 240.299 109.405 240.299C105.069 240.299 101.555 243.813 101.555 248.149ZM104.667 248.149C104.667 245.532 106.789 243.41 109.406 243.41C112.024 243.41 114.145 245.531 114.145 248.149C114.145 250.767 112.024 252.888 109.406 252.888C106.789 252.888 104.667 250.767 104.667 248.149Z" fill="#002B7F"/>
<path d="M184.294 158.576C184.294 160.613 185.946 162.264 187.983 162.264H200.255C202.292 162.264 203.943 160.613 203.943 158.576C203.943 156.539 202.292 154.887 200.255 154.887H187.983C185.946 154.887 184.294 156.539 184.294 158.576Z" fill="#002B7F"/>
</g>
<defs>
<linearGradient id="paint0_linear_1_6612" x1="276.997" y1="293.31" x2="98.0426" y2="102.81" gradientUnits="userSpaceOnUse">
<stop stop-color="#DAE3FE"/>
<stop offset="1" stop-color="#E9EFFD"/>
</linearGradient>
<linearGradient id="paint1_linear_1_6612" x1="185.85" y1="18.7273" x2="199.52" y2="-121.08" gradientUnits="userSpaceOnUse">
<stop stop-color="#09005D"/>
<stop offset="1" stop-color="#1A0F91"/>
</linearGradient>
<linearGradient id="paint2_linear_1_6612" x1="170.772" y1="-65.3843" x2="167.355" y2="-14.432" gradientUnits="userSpaceOnUse">
<stop stop-color="#09005D"/>
<stop offset="1" stop-color="#1A0F91"/>
</linearGradient>
<linearGradient id="paint3_linear_1_6612" x1="121.593" y1="12.4443" x2="135.262" y2="-127.363" gradientUnits="userSpaceOnUse">
<stop stop-color="#09005D"/>
<stop offset="1" stop-color="#1A0F91"/>
</linearGradient>
<linearGradient id="paint4_linear_1_6612" x1="109.241" y1="-1.34857" x2="102.716" y2="49.6037" gradientUnits="userSpaceOnUse">
<stop stop-color="#09005D"/>
<stop offset="1" stop-color="#1A0F91"/>
</linearGradient>
<linearGradient id="paint5_linear_1_6612" x1="61.4647" y1="6.56564" x2="75.1342" y2="-133.242" gradientUnits="userSpaceOnUse">
<stop stop-color="#09005D"/>
<stop offset="1" stop-color="#1A0F91"/>
</linearGradient>
<linearGradient id="paint6_linear_1_6612" x1="71.1158" y1="59.7762" x2="53.0962" y2="113.213" gradientUnits="userSpaceOnUse">
<stop stop-color="#09005D"/>
<stop offset="1" stop-color="#1A0F91"/>
</linearGradient>
<linearGradient id="paint7_linear_1_6612" x1="171.174" y1="237.475" x2="240.962" y2="313.384" gradientUnits="userSpaceOnUse">
<stop stop-color="#09005D"/>
<stop offset="1" stop-color="#1A0F91"/>
</linearGradient>
<linearGradient id="paint8_linear_1_6612" x1="193.826" y1="243.113" x2="187.627" y2="243.113" gradientUnits="userSpaceOnUse">
<stop stop-color="#FEBBBA"/>
<stop offset="1" stop-color="#FF928E"/>
</linearGradient>
<linearGradient id="paint9_linear_1_6612" x1="187.083" y1="125.918" x2="203.907" y2="234.573" gradientUnits="userSpaceOnUse">
<stop stop-color="#09005D"/>
<stop offset="1" stop-color="#1A0F91"/>
</linearGradient>
<linearGradient id="paint10_linear_1_6612" x1="186.83" y1="223.082" x2="256.617" y2="298.991" gradientUnits="userSpaceOnUse">
<stop stop-color="#09005D"/>
<stop offset="1" stop-color="#1A0F91"/>
</linearGradient>
<linearGradient id="paint11_linear_1_6612" x1="216.166" y1="242.795" x2="210.815" y2="242.795" gradientUnits="userSpaceOnUse">
<stop stop-color="#FEBBBA"/>
<stop offset="1" stop-color="#FF928E"/>
</linearGradient>
<linearGradient id="paint12_linear_1_6612" x1="201.923" y1="123.621" x2="218.747" y2="232.275" gradientUnits="userSpaceOnUse">
<stop stop-color="#09005D"/>
<stop offset="1" stop-color="#1A0F91"/>
</linearGradient>
<linearGradient id="paint13_linear_1_6612" x1="215.39" y1="108.357" x2="208.4" y2="74.3397" gradientUnits="userSpaceOnUse">
<stop stop-color="#FEBBBA"/>
<stop offset="1" stop-color="#FF928E"/>
</linearGradient>
<linearGradient id="paint14_linear_1_6612" x1="201.037" y1="75.98" x2="214.749" y2="60.8627" gradientUnits="userSpaceOnUse">
<stop stop-color="#FEBBBA"/>
<stop offset="1" stop-color="#FF928E"/>
</linearGradient>
<linearGradient id="paint15_linear_1_6612" x1="220.43" y1="47.5118" x2="203.861" y2="70.9249" gradientUnits="userSpaceOnUse">
<stop stop-color="#09005D"/>
<stop offset="1" stop-color="#1A0F91"/>
</linearGradient>
<linearGradient id="paint16_linear_1_6612" x1="206.548" y1="78.4882" x2="218.883" y2="64.8874" gradientUnits="userSpaceOnUse">
<stop stop-color="#FEBBBA"/>
<stop offset="1" stop-color="#FF928E"/>
</linearGradient>
<linearGradient id="paint17_linear_1_6612" x1="227.208" y1="151.364" x2="228.077" y2="115.221" gradientUnits="userSpaceOnUse">
<stop stop-color="#FEBBBA"/>
<stop offset="1" stop-color="#FF928E"/>
</linearGradient>
<linearGradient id="paint18_linear_1_6612" x1="157.184" y1="110.709" x2="157.867" y2="82.3031" gradientUnits="userSpaceOnUse">
<stop stop-color="#FEBBBA"/>
<stop offset="1" stop-color="#FF928E"/>
</linearGradient>
<clipPath id="clip0_1_6612">
<rect width="255.684" height="256" fill="white"/>
</clipPath>
</defs>
</svg>
